<!DOCTYPE svg PUBLIC "-//W3C//DTD SVG 20010904//EN" "http://www.w3.org/TR/2001/REC-SVG-20010904/DTD/svg10.dtd">
<svg version="1.0" xmlns="http://www.w3.org/2000/svg" width="380px" height="400px" viewBox="0 0 3800 4000" preserveAspectRatio="xMidYMid meet">
<g id="layer1" fill="#e2a9a6" stroke="none">
 <path d="M384 2336 c-3 -8 -4 -31 -1 -52 3 -37 4 -37 5 8 l2 48 1188 3 1187 2 -1188 3 c-1008 2 -1188 0 -1193 -12z"/>
 <path d="M2550 2250 c0 -11 21 -11 65 0 27 7 25 8 -17 9 -27 0 -48 -3 -48 -9z"/>
 <path d="M3200 2187 c0 -2 15 -16 33 -33 l32 -29 -29 33 c-28 30 -36 37 -36 29z"/>
 <path d="M3050 2087 c0 -2 15 -16 33 -33 l32 -29 -29 33 c-28 30 -36 37 -36 29z"/>
 <path d="M2870 1890 l-235 -6 238 -2 c153 -1 237 2 237 8 0 6 -1 9 -2 8 -2 -1 -109 -5 -238 -8z"/>
 <path d="M423 1883 c26 -2 67 -2 90 0 23 2 2 3 -48 3 -49 0 -68 -1 -42 -3z"/>
 <path d="M803 1883 c64 -2 170 -2 235 0 64 1 11 3 -118 3 -129 0 -182 -2 -117 -3z"/>
 <path d="M1208 1883 c23 -2 59 -2 80 0 20 2 1 4 -43 4 -44 0 -61 -2 -37 -4z"/>
 <path d="M1508 1883 c94 -2 250 -2 345 0 94 1 17 3 -173 3 -190 0 -267 -2 -172 -3z"/>
 <path d="M2213 1883 c37 -2 97 -2 135 0 37 2 6 3 -68 3 -74 0 -105 -1 -67 -3z"/>
 <path d="M2563 1883 c9 -2 25 -2 35 0 9 3 1 5 -18 5 -19 0 -27 -2 -17 -5z"/>
 <path d="M3223 1883 c15 -2 37 -2 50 0 12 2 0 4 -28 4 -27 0 -38 -2 -22 -4z"/>
 <path d="M1520 1810 c-613 -3 -1107 -8 -1097 -13 11 -4 24 -4 29 0 6 3 8 1 4 -5 -3 -6 11 -17 36 -26 38 -14 156 -16 1050 -19 553 -1 1002 1 996 4 -5 3 19 16 54 28 100 36 108 40 73 38 -16 -1 -532 -4 -1145 -7z"/>
 <path d="M3220 1813 c0 -5 22 -8 49 -8 27 0 47 3 44 8 -2 4 -24 7 -49 7 -24 0 -44 -3 -44 -7z"/>
 <path d="M3321 1759 c-2 -25 -45 -59 -77 -60 -24 0 -26 -2 -9 -8 11 -4 27 -6 36 -4 28 8 61 49 56 70 -3 13 -5 14 -6 2z"/>
 </g>
<g id="layer2" fill="#af1715" stroke="none">
 <path d="M390 2295 l0 -45 74 0 73 0 7 -61 c3 -34 6 -118 6 -185 l0 -124 -85 0 -85 0 0 -30 c0 -24 5 -31 26 -36 14 -4 635 -5 1380 -2 745 2 1354 1 1354 -4 0 -4 -112 -8 -249 -8 -234 0 -253 -1 -308 -22 l-58 -23 320 -5 319 -5 9 -42 c9 -45 25 -53 72 -33 19 8 19 8 -5 18 -18 8 -20 11 -7 11 21 1 21 5 2 67 -8 27 -15 50 -15 52 0 2 21 2 47 0 46 -3 47 -4 58 -43 10 -40 10 -41 48 -34 20 3 39 8 42 11 11 11 -38 168 -76 248 -77 157 -206 259 -396 313 l-78 22 -1237 3 -1238 3 0 -46z m2485 -61 c141 -26 263 -96 335 -193 36 -48 80 -131 80 -151 0 -5 -20 -10 -44 -10 -43 0 -44 0 -85 69 -68 115 -178 200 -316 244 -66 21 -207 47 -256 47 -21 0 -39 5 -39 10 0 14 221 3 325 -16z m-465 -209 l0 -145 -860 0 -860 0 0 145 0 145 860 0 860 0 0 -145z m300 124 c128 -24 227 -68 297 -132 41 -37 103 -117 103 -131 0 -3 -126 -6 -280 -6 l-280 0 0 146 0 146 53 -7 c28 -3 77 -11 107 -16z"/>
 </g>

</svg>